<mxfile host="Electron" modified="2024-10-30T06:28:52.973Z" agent="Mozilla/5.0 (Windows NT 10.0; Win64; x64) AppleWebKit/537.36 (KHTML, like Gecko) draw.io/22.0.2 Chrome/114.0.5735.289 Electron/25.8.4 Safari/537.36" etag="Gr_gPLqtBacRABVuNQRc" version="22.0.2" type="device">
  <diagram name="第 1 页" id="fSYWZaJNMlL_t06p-1oz">
    <mxGraphModel dx="1951" dy="965" grid="1" gridSize="10" guides="1" tooltips="1" connect="1" arrows="1" fold="1" page="1" pageScale="1" pageWidth="827" pageHeight="1169" math="0" shadow="0">
      <root>
        <mxCell id="0" />
        <mxCell id="1" parent="0" />
        <mxCell id="fFm2WbIP_SEH0sZtQKVD-5" value="&lt;font face=&quot;新宋体&quot;&gt;完成支付&lt;/font&gt;" style="ellipse;whiteSpace=wrap;html=1;" parent="1" vertex="1">
          <mxGeometry x="760" y="490" width="120" height="40" as="geometry" />
        </mxCell>
        <mxCell id="fFm2WbIP_SEH0sZtQKVD-9" value="&lt;font face=&quot;新宋体&quot;&gt;网络或系统故障&lt;/font&gt;" style="ellipse;whiteSpace=wrap;html=1;" parent="1" vertex="1">
          <mxGeometry x="1000" y="530" width="120" height="40" as="geometry" />
        </mxCell>
        <mxCell id="fFm2WbIP_SEH0sZtQKVD-10" value="&lt;font face=&quot;新宋体&quot;&gt;股价波动&lt;/font&gt;" style="ellipse;whiteSpace=wrap;html=1;" parent="1" vertex="1">
          <mxGeometry x="1000" y="450" width="120" height="40" as="geometry" />
        </mxCell>
        <mxCell id="fFm2WbIP_SEH0sZtQKVD-12" value="&lt;font face=&quot;新宋体&quot;&gt;交易时段限制&lt;/font&gt;" style="ellipse;whiteSpace=wrap;html=1;" parent="1" vertex="1">
          <mxGeometry x="1000" y="370" width="120" height="40" as="geometry" />
        </mxCell>
        <mxCell id="fFm2WbIP_SEH0sZtQKVD-13" value="&amp;lt;&amp;lt;include&amp;gt;&amp;gt;" style="endArrow=open;endSize=12;dashed=1;html=1;rounded=0;exitX=1;exitY=0.5;exitDx=0;exitDy=0;entryX=0;entryY=0.5;entryDx=0;entryDy=0;" parent="1" source="fFm2WbIP_SEH0sZtQKVD-29" target="fFm2WbIP_SEH0sZtQKVD-41" edge="1">
          <mxGeometry width="160" relative="1" as="geometry">
            <mxPoint x="520" y="440" as="sourcePoint" />
            <mxPoint x="460" y="430" as="targetPoint" />
          </mxGeometry>
        </mxCell>
        <mxCell id="fFm2WbIP_SEH0sZtQKVD-14" value="&amp;lt;&amp;lt;extend&amp;gt;&amp;gt;" style="endArrow=open;endSize=12;dashed=1;html=1;rounded=0;entryX=1;entryY=0;entryDx=0;entryDy=0;exitX=0;exitY=0.5;exitDx=0;exitDy=0;" parent="1" source="fFm2WbIP_SEH0sZtQKVD-12" target="fFm2WbIP_SEH0sZtQKVD-5" edge="1">
          <mxGeometry width="160" relative="1" as="geometry">
            <mxPoint x="580" y="830" as="sourcePoint" />
            <mxPoint x="490" y="770" as="targetPoint" />
          </mxGeometry>
        </mxCell>
        <mxCell id="fFm2WbIP_SEH0sZtQKVD-15" value="&amp;lt;&amp;lt;extend&amp;gt;&amp;gt;" style="endArrow=open;endSize=12;dashed=1;html=1;rounded=0;exitX=0;exitY=0.5;exitDx=0;exitDy=0;entryX=0.968;entryY=0.284;entryDx=0;entryDy=0;entryPerimeter=0;" parent="1" source="fFm2WbIP_SEH0sZtQKVD-10" target="fFm2WbIP_SEH0sZtQKVD-5" edge="1">
          <mxGeometry x="-0.0008" width="160" relative="1" as="geometry">
            <mxPoint x="770" y="790" as="sourcePoint" />
            <mxPoint x="890" y="500" as="targetPoint" />
            <mxPoint as="offset" />
          </mxGeometry>
        </mxCell>
        <mxCell id="fFm2WbIP_SEH0sZtQKVD-21" value="&lt;font face=&quot;新宋体&quot;&gt;投资者（用户）&lt;/font&gt;" style="shape=umlActor;verticalLabelPosition=bottom;verticalAlign=top;html=1;" parent="1" vertex="1">
          <mxGeometry x="40" y="350" width="30" height="60" as="geometry" />
        </mxCell>
        <mxCell id="fFm2WbIP_SEH0sZtQKVD-22" value="&lt;font face=&quot;新宋体&quot;&gt;在线证券平台&lt;/font&gt;" style="shape=umlActor;verticalLabelPosition=bottom;verticalAlign=top;html=1;" parent="1" vertex="1">
          <mxGeometry x="1330" y="240" width="30" height="60" as="geometry" />
        </mxCell>
        <mxCell id="fFm2WbIP_SEH0sZtQKVD-23" value="&lt;font face=&quot;新宋体&quot;&gt;银行账户（支付）&lt;/font&gt;" style="shape=umlActor;verticalLabelPosition=bottom;verticalAlign=top;html=1;" parent="1" vertex="1">
          <mxGeometry x="1330" y="570" width="30" height="60" as="geometry" />
        </mxCell>
        <mxCell id="fFm2WbIP_SEH0sZtQKVD-24" value="&lt;font face=&quot;新宋体&quot;&gt;登陆系统&lt;/font&gt;" style="ellipse;whiteSpace=wrap;html=1;" parent="1" vertex="1">
          <mxGeometry x="280" y="110" width="120" height="40" as="geometry" />
        </mxCell>
        <mxCell id="fFm2WbIP_SEH0sZtQKVD-25" value="&lt;font face=&quot;新宋体&quot;&gt;搜索股票&lt;/font&gt;" style="ellipse;whiteSpace=wrap;html=1;" parent="1" vertex="1">
          <mxGeometry x="280" y="190" width="120" height="40" as="geometry" />
        </mxCell>
        <mxCell id="fFm2WbIP_SEH0sZtQKVD-26" value="&amp;lt;&amp;lt;include&amp;gt;&amp;gt;" style="endArrow=open;endSize=12;dashed=1;html=1;rounded=0;exitX=1;exitY=0.5;exitDx=0;exitDy=0;entryX=0;entryY=0.5;entryDx=0;entryDy=0;" parent="1" source="fFm2WbIP_SEH0sZtQKVD-24" target="fFm2WbIP_SEH0sZtQKVD-47" edge="1">
          <mxGeometry width="160" relative="1" as="geometry">
            <mxPoint x="340" y="190" as="sourcePoint" />
            <mxPoint x="480" y="140" as="targetPoint" />
          </mxGeometry>
        </mxCell>
        <mxCell id="fFm2WbIP_SEH0sZtQKVD-27" value="&lt;font face=&quot;新宋体&quot;&gt;查看股票详情&lt;/font&gt;" style="ellipse;whiteSpace=wrap;html=1;" parent="1" vertex="1">
          <mxGeometry x="520" y="190" width="120" height="40" as="geometry" />
        </mxCell>
        <mxCell id="fFm2WbIP_SEH0sZtQKVD-28" value="&amp;lt;&amp;lt;include&amp;gt;&amp;gt;" style="endArrow=open;endSize=12;dashed=1;html=1;rounded=0;exitX=1;exitY=0.5;exitDx=0;exitDy=0;entryX=0;entryY=0.5;entryDx=0;entryDy=0;" parent="1" source="fFm2WbIP_SEH0sZtQKVD-25" target="fFm2WbIP_SEH0sZtQKVD-27" edge="1">
          <mxGeometry width="160" relative="1" as="geometry">
            <mxPoint x="480" y="250" as="sourcePoint" />
            <mxPoint x="480" y="210" as="targetPoint" />
          </mxGeometry>
        </mxCell>
        <mxCell id="fFm2WbIP_SEH0sZtQKVD-29" value="&lt;font face=&quot;新宋体&quot;&gt;买入股票&lt;/font&gt;" style="ellipse;whiteSpace=wrap;html=1;" parent="1" vertex="1">
          <mxGeometry x="280" y="350" width="120" height="40" as="geometry" />
        </mxCell>
        <mxCell id="fFm2WbIP_SEH0sZtQKVD-30" value="&lt;font face=&quot;新宋体&quot;&gt;输入交易信息&lt;/font&gt;" style="ellipse;whiteSpace=wrap;html=1;" parent="1" vertex="1">
          <mxGeometry x="520" y="270" width="120" height="40" as="geometry" />
        </mxCell>
        <mxCell id="fFm2WbIP_SEH0sZtQKVD-32" value="&lt;font face=&quot;新宋体&quot;&gt;确认交易&lt;/font&gt;" style="ellipse;whiteSpace=wrap;html=1;" parent="1" vertex="1">
          <mxGeometry x="520" y="490" width="120" height="40" as="geometry" />
        </mxCell>
        <mxCell id="fFm2WbIP_SEH0sZtQKVD-33" value="&amp;lt;&amp;lt;include&amp;gt;&amp;gt;" style="endArrow=open;endSize=12;dashed=1;html=1;rounded=0;exitX=1;exitY=0.5;exitDx=0;exitDy=0;entryX=0;entryY=0.5;entryDx=0;entryDy=0;" parent="1" source="fFm2WbIP_SEH0sZtQKVD-29" target="fFm2WbIP_SEH0sZtQKVD-30" edge="1">
          <mxGeometry width="160" relative="1" as="geometry">
            <mxPoint x="750" y="700" as="sourcePoint" />
            <mxPoint x="490" y="310" as="targetPoint" />
          </mxGeometry>
        </mxCell>
        <mxCell id="fFm2WbIP_SEH0sZtQKVD-34" value="&lt;font face=&quot;新宋体&quot;&gt;余额不足&lt;/font&gt;" style="ellipse;whiteSpace=wrap;html=1;" parent="1" vertex="1">
          <mxGeometry x="1000" y="610" width="120" height="40" as="geometry" />
        </mxCell>
        <mxCell id="fFm2WbIP_SEH0sZtQKVD-35" value="&amp;lt;&amp;lt;extend&amp;gt;&amp;gt;" style="endArrow=open;endSize=12;dashed=1;html=1;rounded=0;entryX=1;entryY=1;entryDx=0;entryDy=0;exitX=0;exitY=0.5;exitDx=0;exitDy=0;" parent="1" source="fFm2WbIP_SEH0sZtQKVD-34" target="fFm2WbIP_SEH0sZtQKVD-5" edge="1">
          <mxGeometry width="160" relative="1" as="geometry">
            <mxPoint x="440" y="960" as="sourcePoint" />
            <mxPoint x="460" y="820" as="targetPoint" />
          </mxGeometry>
        </mxCell>
        <mxCell id="fFm2WbIP_SEH0sZtQKVD-38" value="&amp;lt;&amp;lt;include&amp;gt;&amp;gt;" style="endArrow=open;endSize=12;dashed=1;html=1;rounded=0;exitX=1;exitY=0.5;exitDx=0;exitDy=0;entryX=0;entryY=0.5;entryDx=0;entryDy=0;" parent="1" source="fFm2WbIP_SEH0sZtQKVD-32" target="fFm2WbIP_SEH0sZtQKVD-5" edge="1">
          <mxGeometry width="160" relative="1" as="geometry">
            <mxPoint x="350" y="660" as="sourcePoint" />
            <mxPoint x="760" y="510" as="targetPoint" />
          </mxGeometry>
        </mxCell>
        <mxCell id="fFm2WbIP_SEH0sZtQKVD-41" value="&lt;font face=&quot;新宋体&quot;&gt;选择支付方式&lt;/font&gt;" style="ellipse;whiteSpace=wrap;html=1;" parent="1" vertex="1">
          <mxGeometry x="520" y="350" width="120" height="40" as="geometry" />
        </mxCell>
        <mxCell id="fFm2WbIP_SEH0sZtQKVD-42" value="&amp;lt;&amp;lt;include&amp;gt;&amp;gt;" style="endArrow=open;endSize=12;dashed=1;html=1;rounded=0;exitX=1;exitY=0.5;exitDx=0;exitDy=0;entryX=0;entryY=0.5;entryDx=0;entryDy=0;" parent="1" source="fFm2WbIP_SEH0sZtQKVD-29" target="fFm2WbIP_SEH0sZtQKVD-32" edge="1">
          <mxGeometry width="160" relative="1" as="geometry">
            <mxPoint x="360" y="590" as="sourcePoint" />
            <mxPoint x="480" y="510" as="targetPoint" />
          </mxGeometry>
        </mxCell>
        <mxCell id="fFm2WbIP_SEH0sZtQKVD-43" value="&amp;lt;&amp;lt;extend&amp;gt;&amp;gt;" style="endArrow=open;endSize=12;dashed=1;html=1;rounded=0;exitX=0;exitY=0.5;exitDx=0;exitDy=0;entryX=0.957;entryY=0.72;entryDx=0;entryDy=0;entryPerimeter=0;" parent="1" source="fFm2WbIP_SEH0sZtQKVD-9" target="fFm2WbIP_SEH0sZtQKVD-5" edge="1">
          <mxGeometry x="-0.0008" width="160" relative="1" as="geometry">
            <mxPoint x="720" y="720" as="sourcePoint" />
            <mxPoint x="890" y="520" as="targetPoint" />
            <mxPoint as="offset" />
          </mxGeometry>
        </mxCell>
        <mxCell id="fFm2WbIP_SEH0sZtQKVD-47" value="&lt;font face=&quot;新宋体&quot;&gt;实名认证与身份验证&lt;/font&gt;" style="ellipse;whiteSpace=wrap;html=1;" parent="1" vertex="1">
          <mxGeometry x="520" y="110" width="120" height="40" as="geometry" />
        </mxCell>
        <mxCell id="fFm2WbIP_SEH0sZtQKVD-48" value="" style="endArrow=block;endSize=16;endFill=0;html=1;rounded=0;entryX=1;entryY=0.5;entryDx=0;entryDy=0;exitX=0;exitY=0.5;exitDx=0;exitDy=0;" parent="1" source="fFm2WbIP_SEH0sZtQKVD-49" target="fFm2WbIP_SEH0sZtQKVD-41" edge="1">
          <mxGeometry width="160" relative="1" as="geometry">
            <mxPoint x="760" y="390" as="sourcePoint" />
            <mxPoint x="850" y="270" as="targetPoint" />
          </mxGeometry>
        </mxCell>
        <mxCell id="fFm2WbIP_SEH0sZtQKVD-49" value="&lt;font face=&quot;新宋体&quot;&gt;使用微信支付&lt;/font&gt;" style="ellipse;whiteSpace=wrap;html=1;" parent="1" vertex="1">
          <mxGeometry x="760" y="350" width="120" height="40" as="geometry" />
        </mxCell>
        <mxCell id="fFm2WbIP_SEH0sZtQKVD-51" value="&lt;font face=&quot;新宋体&quot;&gt;使用银行账户支付&lt;/font&gt;" style="ellipse;whiteSpace=wrap;html=1;" parent="1" vertex="1">
          <mxGeometry x="760" y="410" width="120" height="40" as="geometry" />
        </mxCell>
        <mxCell id="fFm2WbIP_SEH0sZtQKVD-52" value="" style="endArrow=block;endSize=16;endFill=0;html=1;rounded=0;entryX=1;entryY=1;entryDx=0;entryDy=0;exitX=0;exitY=0.5;exitDx=0;exitDy=0;" parent="1" source="fFm2WbIP_SEH0sZtQKVD-51" target="fFm2WbIP_SEH0sZtQKVD-41" edge="1">
          <mxGeometry width="160" relative="1" as="geometry">
            <mxPoint x="770" y="400" as="sourcePoint" />
            <mxPoint x="650" y="440" as="targetPoint" />
          </mxGeometry>
        </mxCell>
        <mxCell id="fFm2WbIP_SEH0sZtQKVD-53" value="&lt;font face=&quot;新宋体&quot;&gt;使用其他方式支付&lt;/font&gt;" style="ellipse;whiteSpace=wrap;html=1;" parent="1" vertex="1">
          <mxGeometry x="760" y="290" width="120" height="40" as="geometry" />
        </mxCell>
        <mxCell id="fFm2WbIP_SEH0sZtQKVD-54" value="" style="endArrow=block;endSize=16;endFill=0;html=1;rounded=0;entryX=1;entryY=0;entryDx=0;entryDy=0;exitX=0;exitY=0.5;exitDx=0;exitDy=0;" parent="1" source="fFm2WbIP_SEH0sZtQKVD-53" target="fFm2WbIP_SEH0sZtQKVD-41" edge="1">
          <mxGeometry width="160" relative="1" as="geometry">
            <mxPoint x="770" y="380" as="sourcePoint" />
            <mxPoint x="644" y="434" as="targetPoint" />
          </mxGeometry>
        </mxCell>
        <mxCell id="fFm2WbIP_SEH0sZtQKVD-57" value="&amp;lt;&amp;lt;include&amp;gt;&amp;gt;" style="endArrow=open;endSize=12;dashed=1;html=1;rounded=0;exitX=1;exitY=0.5;exitDx=0;exitDy=0;entryX=0;entryY=0.5;entryDx=0;entryDy=0;" parent="1" source="fFm2WbIP_SEH0sZtQKVD-58" target="fFm2WbIP_SEH0sZtQKVD-61" edge="1">
          <mxGeometry width="160" relative="1" as="geometry">
            <mxPoint x="520" y="740" as="sourcePoint" />
            <mxPoint x="460" y="730" as="targetPoint" />
          </mxGeometry>
        </mxCell>
        <mxCell id="fFm2WbIP_SEH0sZtQKVD-58" value="&lt;font face=&quot;新宋体&quot;&gt;查询订单状态&lt;/font&gt;" style="ellipse;whiteSpace=wrap;html=1;" parent="1" vertex="1">
          <mxGeometry x="280" y="610" width="120" height="40" as="geometry" />
        </mxCell>
        <mxCell id="fFm2WbIP_SEH0sZtQKVD-59" value="&lt;font face=&quot;新宋体&quot;&gt;查看订单执行情况&lt;/font&gt;" style="ellipse;whiteSpace=wrap;html=1;" parent="1" vertex="1">
          <mxGeometry x="520" y="570" width="120" height="40" as="geometry" />
        </mxCell>
        <mxCell id="fFm2WbIP_SEH0sZtQKVD-60" value="&amp;lt;&amp;lt;include&amp;gt;&amp;gt;" style="endArrow=open;endSize=12;dashed=1;html=1;rounded=0;exitX=1;exitY=0.5;exitDx=0;exitDy=0;entryX=0;entryY=0.5;entryDx=0;entryDy=0;" parent="1" source="fFm2WbIP_SEH0sZtQKVD-58" target="fFm2WbIP_SEH0sZtQKVD-59" edge="1">
          <mxGeometry width="160" relative="1" as="geometry">
            <mxPoint x="750" y="1000" as="sourcePoint" />
            <mxPoint x="490" y="610" as="targetPoint" />
          </mxGeometry>
        </mxCell>
        <mxCell id="fFm2WbIP_SEH0sZtQKVD-61" value="&lt;font face=&quot;新宋体&quot;&gt;查看历史交易记录&lt;/font&gt;" style="ellipse;whiteSpace=wrap;html=1;" parent="1" vertex="1">
          <mxGeometry x="520" y="650" width="120" height="40" as="geometry" />
        </mxCell>
        <mxCell id="fFm2WbIP_SEH0sZtQKVD-63" value="&lt;font style=&quot;font-size: 16px;&quot; face=&quot;新宋体&quot;&gt;使用在线证券账户购买股票&lt;/font&gt;" style="swimlane;whiteSpace=wrap;html=1;startSize=30;" parent="1" vertex="1">
          <mxGeometry x="240" y="40" width="920" height="690" as="geometry">
            <mxRectangle x="240" y="40" width="240" height="30" as="alternateBounds" />
          </mxGeometry>
        </mxCell>
        <mxCell id="fFm2WbIP_SEH0sZtQKVD-64" value="&lt;font face=&quot;新宋体&quot;&gt;股票信息不存在&lt;/font&gt;" style="ellipse;whiteSpace=wrap;html=1;" parent="fFm2WbIP_SEH0sZtQKVD-63" vertex="1">
          <mxGeometry x="520" y="150" width="120" height="40" as="geometry" />
        </mxCell>
        <mxCell id="fFm2WbIP_SEH0sZtQKVD-65" value="&amp;lt;&amp;lt;extend&amp;gt;&amp;gt;" style="endArrow=open;endSize=12;dashed=1;html=1;rounded=0;entryX=1;entryY=0.5;entryDx=0;entryDy=0;exitX=0;exitY=0.5;exitDx=0;exitDy=0;" parent="1" source="fFm2WbIP_SEH0sZtQKVD-64" target="fFm2WbIP_SEH0sZtQKVD-27" edge="1">
          <mxGeometry width="160" relative="1" as="geometry">
            <mxPoint x="1010" y="400" as="sourcePoint" />
            <mxPoint x="872" y="506" as="targetPoint" />
          </mxGeometry>
        </mxCell>
        <mxCell id="fFm2WbIP_SEH0sZtQKVD-66" value="" style="endArrow=none;html=1;rounded=0;entryX=0;entryY=0.5;entryDx=0;entryDy=0;exitX=1;exitY=0.3333333333333333;exitDx=0;exitDy=0;exitPerimeter=0;" parent="1" source="fFm2WbIP_SEH0sZtQKVD-21" target="fFm2WbIP_SEH0sZtQKVD-24" edge="1">
          <mxGeometry width="50" height="50" relative="1" as="geometry">
            <mxPoint x="170" y="210" as="sourcePoint" />
            <mxPoint x="220" y="160" as="targetPoint" />
          </mxGeometry>
        </mxCell>
        <mxCell id="fFm2WbIP_SEH0sZtQKVD-67" value="" style="endArrow=none;html=1;rounded=0;entryX=0;entryY=0.5;entryDx=0;entryDy=0;exitX=1;exitY=0.3333333333333333;exitDx=0;exitDy=0;exitPerimeter=0;" parent="1" source="fFm2WbIP_SEH0sZtQKVD-21" target="fFm2WbIP_SEH0sZtQKVD-25" edge="1">
          <mxGeometry width="50" height="50" relative="1" as="geometry">
            <mxPoint x="90" y="320" as="sourcePoint" />
            <mxPoint x="140" y="270" as="targetPoint" />
          </mxGeometry>
        </mxCell>
        <mxCell id="fFm2WbIP_SEH0sZtQKVD-68" value="" style="endArrow=none;html=1;rounded=0;entryX=0;entryY=0.5;entryDx=0;entryDy=0;exitX=1;exitY=0.3333333333333333;exitDx=0;exitDy=0;exitPerimeter=0;" parent="1" source="fFm2WbIP_SEH0sZtQKVD-21" target="fFm2WbIP_SEH0sZtQKVD-29" edge="1">
          <mxGeometry width="50" height="50" relative="1" as="geometry">
            <mxPoint x="150" y="570" as="sourcePoint" />
            <mxPoint x="200" y="520" as="targetPoint" />
          </mxGeometry>
        </mxCell>
        <mxCell id="fFm2WbIP_SEH0sZtQKVD-69" value="" style="endArrow=none;html=1;rounded=0;entryX=0;entryY=0.5;entryDx=0;entryDy=0;exitX=1;exitY=0.3333333333333333;exitDx=0;exitDy=0;exitPerimeter=0;" parent="1" source="fFm2WbIP_SEH0sZtQKVD-21" target="fFm2WbIP_SEH0sZtQKVD-58" edge="1">
          <mxGeometry width="50" height="50" relative="1" as="geometry">
            <mxPoint x="170" y="590" as="sourcePoint" />
            <mxPoint x="220" y="540" as="targetPoint" />
          </mxGeometry>
        </mxCell>
        <mxCell id="2c9doJkiqMx4kUB0GzxT-2" value="" style="endArrow=none;html=1;rounded=0;entryX=0;entryY=0.3333333333333333;entryDx=0;entryDy=0;entryPerimeter=0;exitX=1;exitY=0.5;exitDx=0;exitDy=0;" parent="1" source="fFm2WbIP_SEH0sZtQKVD-47" target="fFm2WbIP_SEH0sZtQKVD-22" edge="1">
          <mxGeometry width="50" height="50" relative="1" as="geometry">
            <mxPoint x="700" y="140" as="sourcePoint" />
            <mxPoint x="750" y="90" as="targetPoint" />
          </mxGeometry>
        </mxCell>
        <mxCell id="2c9doJkiqMx4kUB0GzxT-3" value="" style="endArrow=none;html=1;rounded=0;entryX=0;entryY=0.3333333333333333;entryDx=0;entryDy=0;entryPerimeter=0;exitX=0.5;exitY=1;exitDx=0;exitDy=0;" parent="1" source="fFm2WbIP_SEH0sZtQKVD-27" target="fFm2WbIP_SEH0sZtQKVD-22" edge="1">
          <mxGeometry width="50" height="50" relative="1" as="geometry">
            <mxPoint x="980" y="300" as="sourcePoint" />
            <mxPoint x="1030" y="250" as="targetPoint" />
            <Array as="points" />
          </mxGeometry>
        </mxCell>
        <mxCell id="2c9doJkiqMx4kUB0GzxT-6" value="" style="endArrow=none;html=1;rounded=0;entryX=0;entryY=0.3333333333333333;entryDx=0;entryDy=0;entryPerimeter=0;exitX=1;exitY=0.5;exitDx=0;exitDy=0;" parent="1" source="fFm2WbIP_SEH0sZtQKVD-30" target="fFm2WbIP_SEH0sZtQKVD-22" edge="1">
          <mxGeometry width="50" height="50" relative="1" as="geometry">
            <mxPoint x="1040" y="350" as="sourcePoint" />
            <mxPoint x="1090" y="300" as="targetPoint" />
          </mxGeometry>
        </mxCell>
        <mxCell id="2c9doJkiqMx4kUB0GzxT-7" value="" style="endArrow=none;html=1;rounded=0;entryX=0;entryY=0.3333333333333333;entryDx=0;entryDy=0;entryPerimeter=0;exitX=1;exitY=0.5;exitDx=0;exitDy=0;" parent="1" source="fFm2WbIP_SEH0sZtQKVD-12" target="fFm2WbIP_SEH0sZtQKVD-22" edge="1">
          <mxGeometry width="50" height="50" relative="1" as="geometry">
            <mxPoint x="1130" y="320" as="sourcePoint" />
            <mxPoint x="1180" y="270" as="targetPoint" />
          </mxGeometry>
        </mxCell>
        <mxCell id="2c9doJkiqMx4kUB0GzxT-8" value="" style="endArrow=none;html=1;rounded=0;entryX=0;entryY=0.3333333333333333;entryDx=0;entryDy=0;entryPerimeter=0;exitX=1;exitY=0.5;exitDx=0;exitDy=0;" parent="1" source="fFm2WbIP_SEH0sZtQKVD-10" target="fFm2WbIP_SEH0sZtQKVD-22" edge="1">
          <mxGeometry width="50" height="50" relative="1" as="geometry">
            <mxPoint x="1110" y="470" as="sourcePoint" />
            <mxPoint x="1160" y="420" as="targetPoint" />
          </mxGeometry>
        </mxCell>
        <mxCell id="2c9doJkiqMx4kUB0GzxT-9" value="" style="endArrow=none;html=1;rounded=0;entryX=0;entryY=0.3333333333333333;entryDx=0;entryDy=0;entryPerimeter=0;exitX=1;exitY=0.5;exitDx=0;exitDy=0;" parent="1" source="fFm2WbIP_SEH0sZtQKVD-9" target="fFm2WbIP_SEH0sZtQKVD-22" edge="1">
          <mxGeometry width="50" height="50" relative="1" as="geometry">
            <mxPoint x="1230" y="450" as="sourcePoint" />
            <mxPoint x="1280" y="400" as="targetPoint" />
          </mxGeometry>
        </mxCell>
        <mxCell id="2c9doJkiqMx4kUB0GzxT-10" value="" style="endArrow=none;html=1;rounded=0;entryX=0;entryY=0.3333333333333333;entryDx=0;entryDy=0;entryPerimeter=0;exitX=1;exitY=0.5;exitDx=0;exitDy=0;" parent="1" source="fFm2WbIP_SEH0sZtQKVD-9" target="fFm2WbIP_SEH0sZtQKVD-23" edge="1">
          <mxGeometry width="50" height="50" relative="1" as="geometry">
            <mxPoint x="1140" y="610" as="sourcePoint" />
            <mxPoint x="1190" y="560" as="targetPoint" />
          </mxGeometry>
        </mxCell>
        <mxCell id="2c9doJkiqMx4kUB0GzxT-11" value="" style="endArrow=none;html=1;rounded=0;entryX=0;entryY=0.3333333333333333;entryDx=0;entryDy=0;entryPerimeter=0;exitX=1;exitY=0.5;exitDx=0;exitDy=0;" parent="1" source="fFm2WbIP_SEH0sZtQKVD-34" target="fFm2WbIP_SEH0sZtQKVD-23" edge="1">
          <mxGeometry width="50" height="50" relative="1" as="geometry">
            <mxPoint x="1140" y="640" as="sourcePoint" />
            <mxPoint x="1190" y="590" as="targetPoint" />
          </mxGeometry>
        </mxCell>
        <mxCell id="2c9doJkiqMx4kUB0GzxT-12" value="" style="endArrow=none;html=1;rounded=0;entryX=0;entryY=0.3333333333333333;entryDx=0;entryDy=0;entryPerimeter=0;exitX=1;exitY=0.5;exitDx=0;exitDy=0;" parent="1" source="fFm2WbIP_SEH0sZtQKVD-34" target="fFm2WbIP_SEH0sZtQKVD-22" edge="1">
          <mxGeometry width="50" height="50" relative="1" as="geometry">
            <mxPoint x="1240" y="530" as="sourcePoint" />
            <mxPoint x="1290" y="480" as="targetPoint" />
          </mxGeometry>
        </mxCell>
        <mxCell id="2c9doJkiqMx4kUB0GzxT-13" value="" style="endArrow=none;html=1;rounded=0;exitX=1;exitY=0.5;exitDx=0;exitDy=0;entryX=0;entryY=0.3333333333333333;entryDx=0;entryDy=0;entryPerimeter=0;" parent="1" source="fFm2WbIP_SEH0sZtQKVD-59" target="fFm2WbIP_SEH0sZtQKVD-22" edge="1">
          <mxGeometry width="50" height="50" relative="1" as="geometry">
            <mxPoint x="720" y="630" as="sourcePoint" />
            <mxPoint x="770" y="580" as="targetPoint" />
            <Array as="points">
              <mxPoint x="1000" y="670" />
              <mxPoint x="1120" y="670" />
            </Array>
          </mxGeometry>
        </mxCell>
        <mxCell id="2c9doJkiqMx4kUB0GzxT-14" value="" style="endArrow=none;html=1;rounded=0;exitX=1;exitY=0.5;exitDx=0;exitDy=0;entryX=0;entryY=0.3333333333333333;entryDx=0;entryDy=0;entryPerimeter=0;" parent="1" source="fFm2WbIP_SEH0sZtQKVD-61" target="fFm2WbIP_SEH0sZtQKVD-23" edge="1">
          <mxGeometry width="50" height="50" relative="1" as="geometry">
            <mxPoint x="690" y="720" as="sourcePoint" />
            <mxPoint x="740" y="670" as="targetPoint" />
            <Array as="points">
              <mxPoint x="1000" y="690" />
              <mxPoint x="1120" y="690" />
            </Array>
          </mxGeometry>
        </mxCell>
        <mxCell id="2c9doJkiqMx4kUB0GzxT-15" value="" style="endArrow=none;html=1;rounded=0;exitX=1;exitY=0.5;exitDx=0;exitDy=0;entryX=0;entryY=0.3333333333333333;entryDx=0;entryDy=0;entryPerimeter=0;" parent="1" source="fFm2WbIP_SEH0sZtQKVD-51" target="fFm2WbIP_SEH0sZtQKVD-23" edge="1">
          <mxGeometry width="50" height="50" relative="1" as="geometry">
            <mxPoint x="1050" y="470" as="sourcePoint" />
            <mxPoint x="1100" y="420" as="targetPoint" />
            <Array as="points">
              <mxPoint x="1120" y="430" />
            </Array>
          </mxGeometry>
        </mxCell>
      </root>
    </mxGraphModel>
  </diagram>
</mxfile>
